<?xml version="1.0" encoding="utf-8"?>
<!-- Generator: Adobe Adobe Illustrator 24.2.0, SVG Export Plug-In . SVG Version: 6.00 Build 0)  -->
<svg version="1.1" xmlns="http://www.w3.org/2000/svg" xmlns:xlink="http://www.w3.org/1999/xlink" x="0px" y="0px" width="640px"
	 height="480px" viewBox="0 0 640 480" style="enable-background:new 0 0 640 480;" xml:space="preserve">
<style type="text/css">
	.st0{fill:#99DBFF;stroke:#99DBFF;stroke-miterlimit:10;}
	.st1{fill:#0A2F42;stroke:#0A2F42;stroke-miterlimit:10;}
	.st2{fill:#DEF3FF;stroke:#DEF3FF;stroke-miterlimit:10;}
	.st3{fill:#CF3434;stroke:#CF3434;stroke-miterlimit:10;}
	.st4{fill:#FFFEE3;stroke:#FFFEE3;stroke-miterlimit:10;}
	.st5{fill:#429DCF;stroke:#429DCF;stroke-miterlimit:10;}
	.st6{fill:#D391ED;stroke:#D391ED;stroke-miterlimit:10;}
	.st7{fill:#240A2E;stroke:#240A2E;stroke-miterlimit:10;}
	.st8{fill:#EEC2FF;stroke:#EEC2FF;stroke-miterlimit:10;}
	.st9{fill:#F6E0FF;stroke:#F6E0FF;stroke-miterlimit:10;}
	.st10{fill:none;stroke:#E1BBF0;stroke-miterlimit:10;}
	.st11{fill:none;stroke:#5E5E5E;stroke-miterlimit:10;}
</style>
<g id="Layer_1">
	<path class="st0" d="M311.28,257.68c2.65-3.98,3.2-9.21,1.75-13.77c-1.45-4.56-4.8-8.42-8.95-10.81
		c-7.09-4.08-16.64-3.62-23.09,1.41c-6.45,5.03-9.19,14.45-6.42,22.73c-28.06,0.13-56.12-0.22-84.17-1.06
		c1.09-6.82-0.23-14.18-4.44-19.65c-4.21-5.47-11.49-7.71-18.24-6.27c-5.64,1.2-10.36,4.47-12.86,9.66s-2.93,11.22-2.04,16.91
		c-4.88-0.51-9.77-1.02-14.65-1.53c-1.06-0.11-2.18-0.24-3.04-0.87c-0.89-0.65-0.35-0.23-0.71-1.28c-2.3-6.81-2.69-15.71-2.05-22.87
		c0.53-5.86,2.44-9.65,4.66-15.76c0.87-2.39,5.25-3.29,7.61-4.25c6.16-2.5,12.57-4.4,19.09-5.68c2.35-0.46,4.77-0.86,6.82-2.09
		c1.94-1.16,3.4-2.95,5.02-4.52c8.15-7.87,20.25-9.83,31.56-10.53c23.34-1.45,47.93,1.12,67.54,13.84
		c5.45,3.54,10.66,7.9,17.01,9.24c7.81,1.64,15.72-1.59,23.05-4.76c1.95,4.3,2.29,9.31,0.93,13.84c3.2-0.84,11.67,4.17,14.16,4.55
		c5.07,0.78-4,6.31-5.66,14.1c3.2,6.87,11.76,5.92,8.87,10.43c-2.43,3.79-3.03,4.73-7.29,7.6"/>
</g>
<g id="Layer_3">
	<path class="st1" d="M296,235.16c-4.28-0.29-8.5,1.65-11.67,4.54c-2.45,2.24-4.42,5.19-4.75,8.49c-0.32,3.26,1.02,6.55,3.19,9
		c2.88,3.25,7.22,5.14,11.56,5.02c4.34-0.11,8.58-2.23,11.28-5.62c1.36-1.71,2.35-3.75,2.69-5.92c0.57-3.64-0.76-7.44-3.2-10.2
		C302.68,237.7,299.32,235.38,296,235.16z"/>
	<path class="st1" d="M182.93,241.54c-1.27-2.01-3.41-3.3-5.57-4.27c-1-0.45-2.04-0.85-3.12-1c-1.21-0.18-2.45-0.05-3.65,0.21
		c-6.16,1.32-11.4,6.29-13.03,12.37c-0.48,1.79-0.67,3.68-0.32,5.5c0.37,1.93,1.33,3.72,2.57,5.25c3.19,3.89,8.39,6.03,13.39,5.52
		c5-0.51,9.66-3.66,12-8.11c0.82-1.57,1.38-3.3,1.46-5.07C186.84,248.02,184.73,244.39,182.93,241.54z"/>
</g>
<g id="Layer_4">
	<path class="st2" d="M275.89,219.02c-16.05-0.37-32.1-0.75-48.16-1.12c-1.46-6.66-2.68-13.36-3.66-20.11
		c12.67-2.32,25.86,0.43,37.66,5.6c4.34,1.91,8.65,4.22,11.76,7.8C275.35,213.33,276.78,216.27,275.89,219.02z"/>
	<path class="st2" d="M225.72,218.15c-15.78,0.26-31.65,0.52-47.25-1.89c2.11-1.61,3.38-4.06,4.72-6.35
		c1.71-2.91,3.65-5.7,5.79-8.31c0.54-0.65,1.1-1.31,1.84-1.72c0.67-0.36,1.43-0.5,2.18-0.62c8.99-1.48,18.14-1.97,27.24-1.45
		C221.82,204.58,223.54,211.31,225.72,218.15z"/>
</g>
<g id="Layer_5">
	<path class="st3" d="M140.46,216.6c-2,5.31-3.25,10.91-3.71,16.56c-0.05,0.55-0.05,1.2,0.38,1.56c0.28,0.23,0.67,0.27,1.04,0.29
		c3.11,0.16,6.24-0.17,9.25-0.97c0.49-0.13,1-0.29,1.36-0.64c0.33-0.32,0.51-0.77,0.67-1.21c1.54-4.27,2.4-8.78,2.54-13.31
		c0.02-0.74,0.02-1.52-0.33-2.17c-0.6-1.11-1.98-1.49-3.23-1.65c-1.79-0.23-3.61-0.21-5.4,0.05
		C141.74,215.29,140.2,215.91,140.46,216.6z"/>
</g>
<g id="Layer_6">
	<path class="st4" d="M314.21,223.18c-0.74,2.97,0,6.09,0.74,9.06c0.08,0.33,0.17,0.68,0.4,0.94c0.24,0.28,0.6,0.42,0.94,0.55
		c1.38,0.5,2.8,0.87,4.24,1.1c0.19,0.03,0.39,0.06,0.57-0.02c0.19-0.08,0.31-0.25,0.42-0.42c0.94-1.44,1.61-3.04,1.99-4.71
		c0.14-0.61,0.23-1.26,0.03-1.85c-0.24-0.72-0.88-1.24-1.48-1.7c-1.75-1.36-3.54-2.74-5.62-3.52c-0.46-0.17-0.95-0.32-1.43-0.21
		S314.09,222.92,314.21,223.18z"/>
</g>
<g id="Layer_2">
	<path class="st5" d="M316.55,219.18c-5.33,0.54-9.79,4.09-14.6,6.46c4.98-3.01,9.2-6.01,14.18-9.02
		C315.87,217.6,316.37,218.57,316.55,219.18z"/>
	<path class="st5" d="M326.62,241.22c-4.86-2.15-9.67-4.4-14.43-6.76c4.3,1.09,7.78,1.98,11.84,3.76
		C324.02,238.19,324.75,238.67,326.62,241.22z"/>
</g>
<g id="Layer_8">
	<path class="st6" d="M437.52,212.89c-0.06-2.39,0.03-4.78,0.28-7.16c0.04-0.43,0.1-0.88,0.35-1.23c0.23-0.32,0.6-0.51,0.95-0.69
		c3.51-1.77,7.21-3.14,11.02-4.09c0.23-0.06,0.47-0.11,0.69-0.03c0.25,0.09,0.41,0.34,0.54,0.58c1.09,1.91,1.95,3.95,2.57,6.06
		c0.14,0.49,0.27,1,0.15,1.49c-0.12,0.49-0.47,0.88-0.81,1.25c-1.69,1.79-3.53,3.44-5.5,4.93c-1.4,1.06-3.05,2.08-4.79,1.83
		c-1.23-0.17-2.28-0.95-3.27-1.7c-0.76-0.58-1.55-1.19-1.99-2.04c-0.42-0.82-0.45-1.78-0.45-2.7c0-1.75,0.1-3.51,0.31-5.25"/>
	<path class="st6" d="M344.06,204.22c-1.03,1.53-2.05,3.06-3.08,4.59c-0.41-0.55-1.13-0.85-1.81-0.75c-1.72,2.6-3.45,5.21-5.17,7.81
		c-0.24,0.37-0.49,0.77-0.47,1.2c0.02,0.43,0.3,0.79,0.57,1.12c2.13,2.66,4.33,5.26,6.59,7.82c0.34,0.38,0.79,0.8,1.28,0.66
		c0.47-0.14,0.65-0.7,0.74-1.18c0.89-4.4,1.57-8.84,2.04-13.3c0.04-0.38,0.07-0.78-0.12-1.11c-0.38-0.63-1.44-0.67-1.68-1.36
		c-0.16-0.45,0.12-0.92,0.38-1.31c1.04-1.54,2.08-3.08,3.12-4.62c-0.81,0-1.62,0-2.43,0C343.89,204.18,343.75,204.57,344.06,204.22z
		"/>
</g>
<g id="Layer_11">
	<path class="st7" d="M340.81,239.76c-1.09,4.91-1.48,9.97-1.16,14.99c0.08,1.21,0.22,2.49,0.95,3.47c0.84,1.13,2.26,1.63,3.6,2.06
		c1.62,0.52,3.26,1.04,4.96,1.06c1.5,0.01,2.96-0.36,4.41-0.74c0.59-0.15,1.2-0.32,1.63-0.75c0.5-0.51,0.62-1.26,0.71-1.96
		c0.82-6.13,1.25-12.3,1.27-18.48"/>
	<path class="st7" d="M424.23,242.53c-0.36,4.39-0.33,8.82,0.09,13.21c0.15,1.58,0.48,3.37,1.84,4.19c0.59,0.36,1.29,0.47,1.97,0.55
		c3.38,0.4,6.93,0.18,10-1.31c0.56-0.27,1.11-0.6,1.47-1.1c0.4-0.55,0.52-1.24,0.62-1.91c0.98-6.27,1.16-12.66,0.55-18.97
		c-0.04-0.37-0.08-0.75-0.27-1.07c-0.59-0.98-2.2-0.83-2.87-1.75"/>
</g>
<g id="Layer_7">
	<path class="st8" d="M357.94,177.64c-2.55,9.75-8.12,18.69-15.74,25.29c0.88,1.63,2.99,2.46,4.75,1.89
		c1.66,2.13-0.54,5.04-1.03,7.69c-0.34,1.87,0.22,3.77,0.35,5.67c0.24,3.64-1.12,7.17-2.46,10.56c-0.9,2.29-1.81,4.58-2.71,6.87
		c-0.52,1.31-1.02,2.84-0.31,4.05c0.61,1.05,1.91,1.44,3.1,1.71c4.42,0.97,8.97,1.26,13.49,1.56c26.39,1.69,53.17,3.36,79.05-2.09
		c1.28-0.27,2.61-0.58,3.63-1.4c1.67-1.34,2.12-3.66,2.4-5.79c0.63-4.84,1-9.71,1.09-14.6c0.02-0.83,0.01-1.71-0.45-2.41
		c-0.64-0.98-1.93-1.25-2.91-1.88c-1.67-1.07-2.38-3.12-3.01-5c-2.9-8.67-6.54-17.07-10.48-25.32c-0.85-1.79-1.74-3.59-3.08-5.05
		c-2.94-3.18-7.54-4.13-11.85-4.57c-4.17-0.42-8.38-0.52-12.57-0.55c-7.06-0.06-14.12,0.04-21.18,0.31
		C371.08,174.82,364.01,175.27,357.94,177.64z"/>
</g>
<g id="Layer_9">
	<path class="st9" d="M361.25,182.15c-0.74,5.23-3.78,9.81-6.44,14.37c-2.66,4.57-5.09,9.68-4.42,14.93
		c0.04,0.3,0.09,0.62,0.28,0.85c0.32,0.4,0.89,0.46,1.4,0.48c24.48,1.18,49.02,1.08,73.49-0.3c2.44-0.14,5.27-0.51,6.55-2.6
		c1.3-2.12,0.28-4.86-0.8-7.1c-3.01-6.25-6.4-12.31-10.14-18.15c-0.69-1.08-1.43-2.19-2.52-2.89c-1.38-0.88-3.11-0.96-4.75-1.01
		c-6.32-0.2-12.64-0.4-18.97-0.6C383.5,179.77,371.9,179.42,361.25,182.15z"/>
	<path class="st9" d="M378.53,238.59c0.14,3.99-0.22,8.47-0.08,12.46c8.19,0.26,16.39,0.16,24.58-0.29
		c-0.25-4.27-0.5-8.54-0.75-12.82C394.13,237.43,386.44,237.15,378.53,238.59z"/>
</g>
<g id="Layer_10">
	<path class="st10" d="M353.89,211.73c0-1.81,0-3.62,0.01-5.43"/>
	<path class="st10" d="M356.4,212.29c1.5-0.94,3.01-1.87,4.51-2.81"/>
	<path class="st10" d="M352.15,205.47c1.6,0.15,3.19,0.29,4.79,0.44c0.56,0.05,1.14,0.11,1.64,0.36c0.96,0.48,1.45,1.55,1.87,2.53
		c0.54,1.27,1.08,2.54,1.61,3.81"/>
	<path class="st10" d="M364.86,213.05c0.38-0.93,0.83-1.94,1.74-2.36c1.07-0.51,2.37-0.01,3.5-0.36c0.35-0.11,0.68-0.3,1.04-0.38
		c0.36-0.08,0.79-0.02,1.01,0.28"/>
	<path class="st10" d="M360.45,207.16c0.57-1.04,1.47-1.89,2.53-2.42"/>
	<path class="st10" d="M365.59,199.56c-0.99,0.9-1.98,1.81-2.97,2.71c-0.16,0.15-0.33,0.31-0.38,0.52
		c-0.06,0.24,0.05,0.49,0.16,0.72c0.3,0.64,0.61,1.28,0.91,1.92c1.08-0.31,2.21,0.25,3.17,0.83c0.54,0.33,1.1,0.69,1.43,1.23
		c0.07,0.11,0.17,0.25,0.29,0.21c0.06-0.02,0.1-0.08,0.14-0.13c0.57-0.85,1.13-1.7,1.7-2.54"/>
	<path class="st10" d="M358.62,205.78c-0.07-1.19-0.17-2.45-0.87-3.42c-0.15-0.21-0.34-0.41-0.45-0.65
		c-0.27-0.57-0.11-1.24,0.06-1.85c0.12-0.42,0.24-0.85,0.36-1.27"/>
	<path class="st10" d="M354.6,198.39c1.81,0.57,3.78,0.63,5.63,0.19c1.63-0.39,3.59-1.1,4.81,0.06c0.36,0.35,0.59,0.83,1,1.12
		c0.44,0.32,1.02,0.37,1.49,0.65c1.35,0.8,1.07,2.85,1.9,4.19c0.62,1,1.84,1.55,2.32,2.62c0.2,0.45,0.25,0.95,0.3,1.45
		c0.16,1.67,0.33,3.34,0.49,5.02"/>
	<path class="st10" d="M361.62,197.88c0.65-0.65,1.3-1.3,1.94-1.96c0.09-0.09,0.18-0.2,0.17-0.32c-0.01-0.1-0.09-0.19-0.17-0.26
		c-0.75-0.71-1.43-1.49-2.03-2.34c-0.11-0.16-0.22-0.33-0.21-0.52c0.01-0.19,0.13-0.35,0.25-0.49c1.47-1.79,3.13-3.42,4.94-4.87"/>
	<path class="st10" d="M363.34,194.31c1.54-0.44,3.08-0.87,4.63-1.31c0.2-0.06,0.41-0.12,0.59-0.23c0.69-0.46,0.55-1.5,0.86-2.27
		c0.3-0.74,1.09-1.25,1.88-1.21"/>
	<path class="st10" d="M370,204.76c0.52-1.72,1.03-3.43,1.55-5.15c0.12-0.4,0.25-0.82,0.54-1.11c0.21-0.22,0.49-0.35,0.77-0.47
		c0.81-0.34,1.64-0.6,2.5-0.78c0.66-0.14,1.41-0.27,1.8-0.83c0.58-0.85-0.07-2.15,0.53-2.98"/>
	<path class="st10" d="M381.17,199.16c-1.67,1.89-3.41,3.84-5.72,4.84c-0.18,0.08-0.36,0.15-0.5,0.28
		c-0.67,0.63,0.19,1.83-0.21,2.66c-0.07,0.15-0.18,0.3-0.13,0.45c0.03,0.09,0.1,0.16,0.17,0.22c0.62,0.54,1.23,1.07,1.85,1.61
		c0.23,0.2,0.47,0.41,0.63,0.67c0.19,0.31,0.27,0.67,0.34,1.02c0.15,0.69,0.29,1.39,0.44,2.08"/>
	<path class="st10" d="M376.38,203.9c0.46,0.25,0.93,0.5,1.39,0.75c0.14,0.07,0.28,0.15,0.43,0.16c0.19,0.02,0.38-0.06,0.56-0.14
		c0.96-0.44,1.96-0.99,3-0.83c0.39,0.06,0.76,0.23,1.13,0.39c0.68,0.3,1.36,0.61,2.04,0.91"/>
	<path class="st10" d="M359.93,188.91c1.7,0.12,3.43-0.2,4.97-0.94c1.08-0.51,2.19-1.24,3.36-1.02c0.95,0.18,1.67,0.94,2.32,1.67
		c0.7,0.78,1.41,1.58,1.88,2.52c0.19,0.38,0.38,0.82,0.77,0.98c0.39,0.15,0.82-0.02,1.24-0.04c1.17-0.03,2.04,1.21,3.2,1.32
		c0.91,0.08,1.87-0.54,2.69-0.13c0.93,0.46,0.85,1.81,0.56,2.8c-0.29,1-0.59,2.24,0.18,2.94c0.54,0.49,1.4,0.47,1.97,0.93
		c1.09,0.88,0.39,2.7,0.96,3.98c0.35,0.78,1.16,1.32,1.35,2.14c0.11,0.49-0.01,1.01,0.01,1.51c0.09,1.78,2.04,3.36,1.37,5.01"/>
	<path class="st10" d="M384.07,203.03c1.09-0.59,2.41-0.75,3.6-0.42c0.76,0.21,1.54,0.6,2.28,0.35c0.41-0.13,0.73-0.44,1.05-0.72
		c0.94-0.82,2.04-1.51,3.27-1.74c1.23-0.23,2.6,0.06,3.47,0.97c0.2,0.21,0.4,0.46,0.68,0.52c0.19,0.04,0.39-0.02,0.57-0.09
		c0.88-0.29,1.77-0.58,2.65-0.87c0.12,0.12-0.18,0.29-0.23,0.14"/>
	<path class="st10" d="M374.68,192.18c-0.38-1.61-0.66-3.25-0.82-4.89c1.2-0.76,2.41-1.51,3.61-2.27c0.39-0.24,0.79-0.49,1.25-0.57
		c0.67-0.11,1.35,0.17,1.94,0.5c0.53,0.3,1.06,0.65,1.67,0.71c1.79,0.17,2.95-2.17,4.74-2.3c0.66-0.05,1.29,0.22,1.9,0.49
		c0.84,0.37,1.69,0.73,2.53,1.1c0.26,0.11,0.55,0.23,0.83,0.17c0.2-0.05,0.37-0.18,0.53-0.32c1.01-0.83,2.01-1.66,3.02-2.5"/>
	<path class="st10" d="M363.35,188.24c0.58-1.14,1.06-2.33,1.42-3.55c-0.65-0.52-1.26-1.09-1.83-1.7"/>
</g>
<g id="Layer_12">
	<path class="st4" d="M429.71,224.69c-1.07-2.16-3.98-2.61-6.35-2.2c-0.97,0.17-1.92,0.44-2.81,0.85c-2.56,1.2-4.49,3.76-4.76,6.58
		s1.23,5.77,3.74,7.07c0.74,0.38,1.55,0.63,2.38,0.78c2.51,0.46,5.22,0.04,7.34-1.38c2.13-1.41,3.6-3.85,3.62-6.41
		C432.91,227.43,431.38,224.87,429.71,224.69z"/>
	<path class="st4" d="M349.34,234.81c2.48-1.59,4.95-3.19,7.43-4.78c-0.17-2.54-0.24-5.09-0.22-7.64c3.37,0.3,6.74,2.04,8.34,5.02
		c1.6,2.98,0.94,7.19-1.89,9.04c-0.79,0.52-1.69,0.84-2.61,1.05C356.64,238.37,352.51,237.38,349.34,234.81z"/>
	<path class="st4" d="M353.82,229.17c0.12-1.99,0.14-3.99,0.07-5.98c-1.28,1.18-2.51,2.41-3.69,3.69c-1.31,1.44-2.63,3.13-2.56,5.08
		C349.75,230.86,351.83,229.69,353.82,229.17z"/>
</g>
<g id="Layer_13">
	<path class="st11" d="M294.48,202.19c-1.7-6.41-3.41-12.81-5.21-19.27c5.87,4.33,11.84,8.53,17.9,12.61"/>
	<path class="st11" d="M307.14,195.91c-3.79-32.99-6.26-66.12-7.23-99.45c10.69,32.51,20.49,65.32,29.39,98.37"/>
	<path class="st11" d="M329.14,194.59c5.75-13.11,12.2-25.92,19.62-38.25c-0.67,11.83-1.34,23.67-2.01,35.5"/>
	<path class="st11" d="M310.38,169.08c1.11,3.92,2.23,7.83,3.34,11.75"/>
	<path class="st11" d="M321.73,187.79c1.34,4.31,2.67,8.61,4.01,12.92"/>
	<path class="st11" d="M300.72,198.61c0.96,2.16,1.92,4.31,2.87,6.47"/>
	<path class="st11" d="M318.33,198.77c1.4,4.25,2.8,8.5,4.2,12.75"/>
	<path class="st11" d="M337.34,189.9c0.65,2.37,1.31,4.73,1.96,7.1"/>
	<path class="st11" d="M330.42,202.97c0.44,2.21,1.06,4.38,1.86,6.48"/>
	<path class="st11" d="M312.18,187.47c0.7,2.2,1.41,4.41,2.11,6.61"/>
	<path class="st11" d="M310.89,149.55c0.75,2.69,1.51,5.38,2.26,8.07"/>
	<path class="st11" d="M320.15,214.96c0.41,0.77,0.81,1.54,1.22,2.32"/>
	<path class="st11" d="M327.55,214.97c0.72,1.64,1.43,3.28,2.15,4.92"/>
	<path class="st11" d="M336.51,225.45c0.5,1.34,1.01,2.69,1.51,4.03"/>
</g>
</svg>
