<?xml version="1.0" encoding="utf-8"?>
<!-- Generator: Adobe Adobe Illustrator 24.2.0, SVG Export Plug-In . SVG Version: 6.00 Build 0)  -->
<svg version="1.1" xmlns="http://www.w3.org/2000/svg" xmlns:xlink="http://www.w3.org/1999/xlink" x="0px" y="0px" width="640px"
	 height="480px" viewBox="0 0 640 480" style="enable-background:new 0 0 640 480;" xml:space="preserve">
<style type="text/css">
	.st0{fill:#FFF1E6;stroke:#FFF1E6;stroke-miterlimit:10;}
	.st1{fill:#F7B977;stroke:#F7B977;stroke-miterlimit:10;}
	.st2{fill:none;stroke:#FFCF9C;stroke-miterlimit:10;}
</style>
<g id="Layer_4">
	<path class="st0" d="M324.52,223.8c0.04,19.18,0.09,38.35,0.13,57.53c0.01,6.13,0.03,12.26,0.33,18.39
		c0.25,5.08,1.01,10.75,5.01,13.9c4.55,3.58,11.7,2.03,15.65-2.2c3.95-4.23,5.24-10.33,5.26-16.12c0.01-2.13,0.06-4.66,1.83-5.83
		c1.82-1.2,4.44-0.03,5.53,1.87s1.04,4.21,0.89,6.38c-0.19,2.88-0.49,5.77-1.33,8.52c-1.62,5.33-5.29,10.02-10.08,12.87
		c-4.79,2.85-10.66,3.85-16.12,2.73c-3.32-0.68-6.53-2.14-8.94-4.52c-2.72-2.69-4.28-6.37-5.01-10.13s-0.72-7.61-0.7-11.43
		c0.13-24.67,0.26-49.34,0.38-74C319.6,221.88,321.8,222.57,324.52,223.8z"/>
</g>
<g id="Layer_5">
	<path class="st0" d="M323.72,142.21c-0.56-3.47-1.47-6.89-2.7-10.18c-1.11,3.62-2.21,7.24-3.32,10.85
		C319.73,143.12,321.82,142.93,323.72,142.21z"/>
</g>
<g id="Layer_2">
	<path class="st1" d="M415.23,247.44c-12.68-10.28-26.49-19.59-42.05-24.55c-15.55-4.97-33.12-5.22-47.72,2.08
		c-0.95,0.47-1.92,0.99-2.98,1.05c-1.29,0.08-2.52-0.53-3.69-1.08c-13.92-6.56-30.17-7.37-45.12-3.73
		c-14.95,3.64-28.65,11.52-40.42,21.43c2.18-22.2,7.79-44.69,20.85-62.77c5.41-7.49,12-14.08,19.18-19.89
		c7.05-5.7,14.75-10.7,23.17-14.07c15.56-6.24,33.12-6.66,49.41-2.71c22.57,5.48,43.05,19.45,56.03,38.71
		S420.16,225.56,415.23,247.44z"/>
</g>
<g id="Layer_3">
	<path class="st2" d="M320.37,150.29c0.8,20.92,1.61,41.84,2.41,62.75"/>
</g>
</svg>
